# xmcd
#
# Track frame offsets:
#	150
#	12140
#	24188
#	37403
#	50893
#	65963
#	77014
#	90103
#	103156
#	115514
#	127279
#	138680
#	151457
#	160931
#	174026
#	186441
#	200178
#	211418
#	226282
#	235291
#
# Disc length: 3278 seconds
#
# Revision: 0
# Processed by: cddbd v1.5.2PL0 Copyright (c) Steve Scherf et al.
# Submitted via: EasyCDDAExtractor 16.0.8.2
#
DISCID=1d0ccc14
DTITLE=Συλλογικός δίσκος - Όταν τα σλόου τα έλεγαν μπλουζ 2-3
DYEAR=2011
DGENRE=Ξένη σλόου
TTITLE0=Neil Sedaka - You mean everything to me
TTITLE1=Paul Anka - Put your head on my shoulder
TTITLE2=Johnny Mathis - What'il I do
TTITLE3=The McGuire Sisters - Sincerely
TTITLE4=Yves Montand - Les feuilles mortes
TTITLE5=Dinah Washington - Cry me a river
TTITLE6=Ruth Brown - Oh what a dream
TTITLE7=The Platters - I'll never smile again
TTITLE8=Jerry Butler - For your precious love
TTITLE9=Matt Monro - Dancing with tears in my eyes
TTITLE10=Elvis Presley - One night
TTITLE11=Nat King Cole - A fool was I
TTITLE12=Santo and Johnny - Teardrop
TTITLE13=Shep and The Limelites - Daddy's home
TTITLE14=Andy Williams - Are you sincere
TTITLE15=The Platters - Prisoner of love
TTITLE16=Jackie Wilson - To be loved
TTITLE17=Lorez Alexandria - The sky is crying
TTITLE18=Elvis Presley - Don't leave me now
TTITLE19=Carla Thomas - Gee whiz (Look at his eyes)
EXTD=
EXTT0=
EXTT1=
EXTT2=
EXTT3=
EXTT4=
EXTT5=
EXTT6=
EXTT7=
EXTT8=
EXTT9=
EXTT10=
EXTT11=
EXTT12=
EXTT13=
EXTT14=
EXTT15=
EXTT16=
EXTT17=
EXTT18=
EXTT19=
PLAYORDER=
